<?xml version="1.0" encoding="UTF-8"?>
<svg id="katman_2" data-name="katman 2" xmlns="http://www.w3.org/2000/svg" viewBox="0 0 14.75 14.75">
  <defs>
    <style>
      .cls-1 {
        fill: #ff5f00;
      }
    </style>
  </defs>
  <g id="Layer_1" data-name="Layer 1">
    <path class="cls-1" d="M4.21,4.44c.31-.27.62-.55.93-.82.21-.18.27-.47.15-.67-.54-.89-1.05-1.81-1.53-2.73-.1-.2-.36-.27-.59-.16-.87.4-1.74.8-2.62,1.19C.18,1.4-.05,1.8.01,2.18c.55,3.21,2.04,6.11,4.25,8.31,2.2,2.2,5.1,3.7,8.31,4.25.38.06.78-.17.94-.54.39-.88.78-1.75,1.19-2.62.11-.24.04-.49-.16-.59-.93-.48-1.84-.99-2.73-1.53-.2-.12-.49-.05-.67.15-.27.31-.55.62-.82.93-.15.17-.38.25-.58.19-1.11-.33-2.39-1.18-3.46-2.25-1.07-1.07-1.92-2.35-2.25-3.46-.06-.19.02-.42.19-.58Z"/>
  </g>
</svg>