<?xml version="1.0" encoding="UTF-8"?>
<svg id="katman_2" data-name="katman 2" xmlns="http://www.w3.org/2000/svg" viewBox="0 0 15.52 15.52">
  <defs>
    <style>
      .cls-1 {
        fill: #ff5f00;
      }
    </style>
  </defs>
  <g id="Layer_1" data-name="Layer 1">
    <path class="cls-1" d="M14.05,12.29c.92-1.28,1.47-2.84,1.47-4.53s-.54-3.26-1.47-4.53c-.02-.03-.04-.07-.07-.1C12.57,1.23,10.31,0,7.76,0,5.22,0,2.96,1.23,1.54,3.12c-.03.03-.05.06-.07.09C.55,4.5,0,6.07,0,7.76c0,4.28,3.48,7.76,7.76,7.76,2.54,0,4.81-1.23,6.22-3.13.03-.03.05-.06.07-.1ZM1,8.25h2.1c.04,1.11.22,2.17.52,3.13-.49.04-.99.1-1.48.16-.64-.95-1.05-2.07-1.13-3.28ZM2.14,3.98c.49.06.99.11,1.48.16-.3.96-.48,2.02-.52,3.13H1c.09-1.21.49-2.33,1.13-3.28ZM14.52,7.27h-2.1c-.04-1.1-.22-2.16-.52-3.12.5-.04.99-.1,1.48-.15.64.95,1.04,2.07,1.13,3.28ZM11.43,7.27h-3.18v-2.94c.88,0,1.75-.04,2.63-.1.31.9.5,1.94.55,3.04ZM8.25,3.34V1.05c.87.23,1.66,1.04,2.23,2.21-.74.04-1.49.07-2.23.08ZM7.27,1.05v2.29c-.74,0-1.49-.03-2.23-.08.57-1.17,1.36-1.98,2.23-2.21ZM7.27,4.32v2.94h-3.18c.05-1.1.24-2.14.55-3.05.87.06,1.75.09,2.63.1ZM4.09,8.25h3.18s0,2.94,0,2.94c-.88,0-1.75.04-2.63.1-.31-.9-.51-1.94-.55-3.05ZM7.27,12.18v2.29c-.87-.23-1.66-1.04-2.23-2.21.74-.04,1.49-.07,2.23-.08ZM8.25,14.47v-2.29c.74,0,1.49.03,2.23.08-.57,1.17-1.36,1.98-2.23,2.21ZM8.25,11.2v-2.94h3.18c-.05,1.1-.24,2.14-.55,3.04-.88-.06-1.75-.09-2.63-.1ZM12.42,8.25h2.1c-.09,1.21-.49,2.33-1.13,3.28-.49-.06-.99-.11-1.48-.15.3-.96.48-2.02.52-3.12ZM12.65,3.08c-.37.04-.74.07-1.11.1-.12-.28-.26-.55-.4-.81-.15-.27-.32-.52-.49-.74.76.36,1.44.85,2.01,1.45ZM4.87,1.63c-.17.23-.34.47-.49.74-.15.25-.28.52-.4.81-.37-.03-.74-.07-1.11-.11.57-.6,1.25-1.09,2-1.44ZM2.87,12.44c.37-.04.74-.07,1.11-.11.12.28.26.55.4.81.15.27.32.52.49.74-.75-.36-1.43-.85-2-1.44ZM10.65,13.89c.17-.23.34-.47.49-.74.15-.26.28-.53.4-.81.37.03.74.07,1.11.1-.57.6-1.25,1.09-2.01,1.45Z"/>
  </g>
</svg>