<?xml version="1.0" encoding="UTF-8"?>
<svg id="katman_2" data-name="katman 2" xmlns="http://www.w3.org/2000/svg" viewBox="0 0 12.99 12.99">
  <defs>
    <style>
      .cls-1 {
        fill: #fff;
      }
    </style>
  </defs>
  <g id="Layer_1" data-name="Layer 1">
    <g>
      <path class="cls-1" d="M9.93,2.32c-.42,0-.76.34-.76.76s.34.76.76.76.76-.34.76-.76-.34-.76-.76-.76Z"/>
      <path class="cls-1" d="M6.55,3.3c-1.76,0-3.2,1.44-3.2,3.2s1.44,3.2,3.2,3.2,3.2-1.44,3.2-3.2-1.44-3.2-3.2-3.2ZM6.55,8.54c-1.13,0-2.05-.92-2.05-2.05s.92-2.05,2.05-2.05,2.05.92,2.05,2.05-.92,2.05-2.05,2.05Z"/>
      <path class="cls-1" d="M9.09,12.99H3.9c-2.15,0-3.9-1.75-3.9-3.9V3.9C0,1.75,1.75,0,3.9,0h5.19c2.15,0,3.9,1.75,3.9,3.9v5.19c0,2.15-1.75,3.9-3.9,3.9ZM3.9,1.22c-1.48,0-2.68,1.2-2.68,2.68v5.19c0,1.48,1.2,2.68,2.68,2.68h5.19c1.48,0,2.68-1.2,2.68-2.68V3.9c0-1.48-1.2-2.68-2.68-2.68H3.9Z"/>
    </g>
  </g>
</svg>