<?xml version="1.0" encoding="UTF-8"?>
<svg id="katman_2" data-name="katman 2" xmlns="http://www.w3.org/2000/svg" viewBox="0 0 34.67 34.67">
  <defs>
    <style>
      .cls-1 {
        fill: #a6a3cb;
      }

      .cls-2 {
        fill: #fff;
      }

      .cls-3 {
        fill: #4853a0;
      }
    </style>
  </defs>
  <g id="Layer_1" data-name="Layer 1">
    <g>
      <path class="cls-1" d="M34.67,17.34c0,9.57-7.76,17.34-17.34,17.34S0,26.91,0,17.34,7.76,0,17.34,0s17.34,7.76,17.34,17.34"/>
      <path class="cls-3" d="M33.59,17.34c0,8.98-7.28,16.25-16.25,16.25S1.08,26.31,1.08,17.34,8.36,1.08,17.34,1.08s16.25,7.28,16.25,16.25"/>
      <path class="cls-2" d="M32.62,17.34c0,8.44-6.84,15.28-15.28,15.28S2.05,25.78,2.05,17.34,8.9,2.05,17.34,2.05s15.28,6.84,15.28,15.28"/>
      <path class="cls-3" d="M31.7,17.34c0,7.93-6.43,14.37-14.37,14.37S2.97,25.27,2.97,17.34,9.4,2.97,17.34,2.97s14.37,6.43,14.37,14.37"/>
    </g>
  </g>
</svg>